<svg width="105" height="104" viewBox="0 0 105 104" fill="none" xmlns="http://www.w3.org/2000/svg">
<g filter="url(#filter0_d_26_882)">
<circle cx="52.5" cy="48.5" r="48.5" fill="#4973FF"/>
<path d="M61.5717 46.1429C64.7276 46.1429 67.286 43.5845 67.286 40.4286C67.286 37.2727 64.7276 34.7143 61.5717 34.7143C58.4158 34.7143 55.8574 37.2727 55.8574 40.4286C55.8574 43.5845 58.4158 46.1429 61.5717 46.1429Z" stroke="white" stroke-width="2.80952" stroke-linecap="round" stroke-linejoin="round"/>
<path d="M44.4286 46.1429C47.5846 46.1429 50.1429 43.5845 50.1429 40.4286C50.1429 37.2727 47.5846 34.7143 44.4286 34.7143C41.2727 34.7143 38.7144 37.2727 38.7144 40.4286C38.7144 43.5845 41.2727 46.1429 44.4286 46.1429Z" stroke="white" stroke-width="2.80952" stroke-linecap="round" stroke-linejoin="round"/>
<path d="M44.4286 63.2857C47.5846 63.2857 50.1429 60.7273 50.1429 57.5714C50.1429 54.4155 47.5846 51.8571 44.4286 51.8571C41.2727 51.8571 38.7144 54.4155 38.7144 57.5714C38.7144 60.7273 41.2727 63.2857 44.4286 63.2857Z" stroke="white" stroke-width="2.80952" stroke-linecap="round" stroke-linejoin="round"/>
<path d="M61.5717 51.8571V63.2857M67.286 57.5714H55.8574" stroke="white" stroke-width="2.80952" stroke-linecap="round" stroke-linejoin="round"/>
</g>
<defs>
<filter id="filter0_d_26_882" x="0.566372" y="0" width="103.867" height="103.867" filterUnits="userSpaceOnUse" color-interpolation-filters="sRGB">
<feFlood flood-opacity="0" result="BackgroundImageFix"/>
<feColorMatrix in="SourceAlpha" type="matrix" values="0 0 0 0 0 0 0 0 0 0 0 0 0 0 0 0 0 0 127 0" result="hardAlpha"/>
<feOffset dy="3.43363"/>
<feGaussianBlur stdDeviation="1.71681"/>
<feComposite in2="hardAlpha" operator="out"/>
<feColorMatrix type="matrix" values="0 0 0 0 0 0 0 0 0 0 0 0 0 0 0 0 0 0 0.25 0"/>
<feBlend mode="normal" in2="BackgroundImageFix" result="effect1_dropShadow_26_882"/>
<feBlend mode="normal" in="SourceGraphic" in2="effect1_dropShadow_26_882" result="shape"/>
</filter>
</defs>
</svg>
